<?xml version="1.0" standalone="no"?>
<!DOCTYPE svg PUBLIC "-//W3C//DTD SVG 20010904//EN"
 "http://www.w3.org/TR/2001/REC-SVG-20010904/DTD/svg10.dtd">
<svg version="1.0" xmlns="http://www.w3.org/2000/svg"
 width="50px" height="50px" viewBox="0 0 820.000000 512.000000"
 preserveAspectRatio="xMidYMid meet">

<g transform="translate(0.000000,512.000000) scale(0.100000,-0.100000)"
fill="#ff6593" stroke="none">
<path d="M3880 4121 c-333 -126 -765 -289 -960 -362 l-355 -134 -3 -1094 c-2
-1039 -1 -1093 15 -1086 10 4 36 13 58 21 22 7 162 58 310 113 l270 99 3 913
2 914 631 158 c346 86 634 155 640 152 12 -8 12 -2642 0 -2649 -5 -3 -82 1
-172 9 -145 14 -418 38 -1004 90 -93 8 -226 19 -295 25 -69 6 -138 12 -155 15
-64 10 16 -18 520 -180 286 -92 644 -206 795 -255 151 -49 285 -91 297 -95 22
-6 89 11 553 141 107 30 245 69 305 85 61 17 140 40 178 50 l67 20 0 1489 c0
1409 -1 1489 -17 1494 -10 3 -142 39 -293 81 -151 42 -338 94 -415 115 -321
90 -359 100 -364 99 -3 0 -278 -103 -611 -228z" fill="#ff6593"/>
</g>
</svg>
